<svg width="49" height="44" viewBox="0 0 49 44" fill="none" xmlns="http://www.w3.org/2000/svg">
<path d="M0.00185047 0.418C-0.0421495 0.256667 0.698517 0.176 2.22385 0.176C3.91052 0.176 4.77585 0.315334 4.81985 0.594L5.89785 9.856L8.22985 0.484C8.30318 0.264001 8.87518 0.154001 9.94585 0.154001C11.0165 0.154001 11.5885 0.256667 11.6618 0.462001L13.9499 9.9L15.2259 0.550001C15.2552 0.388667 15.5925 0.278667 16.2379 0.22C16.8832 0.161334 17.4039 0.132001 17.7999 0.132001C19.3399 0.132001 20.0879 0.234668 20.0439 0.440001L17.3819 15.026C17.3232 15.246 16.9052 15.4073 16.1278 15.51C15.3505 15.6127 14.7199 15.664 14.2359 15.664C12.4172 15.664 11.4639 15.4587 11.3759 15.048L9.87985 8.998L8.25185 15.026C8.19318 15.29 7.67985 15.4807 6.71185 15.598C6.21318 15.642 5.71452 15.664 5.21585 15.664L3.80785 15.598C2.83985 15.4953 2.32652 15.312 2.26785 15.048L0.00185047 0.418Z" fill="white"/>
<path d="M27.7129 15.818C25.6596 15.818 23.9802 15.1433 22.6749 13.794C21.3842 12.4447 20.7389 10.4793 20.7389 7.898C20.7389 5.302 21.3916 3.33667 22.6969 2.002C24.0169 0.667333 25.7109 0 27.7789 0C29.8616 0 31.5409 0.66 32.8169 1.98C34.0929 3.28533 34.7309 5.27267 34.7309 7.942C34.7309 10.5967 34.0782 12.5767 32.7729 13.882C31.4676 15.1727 29.7809 15.818 27.7129 15.818ZM27.7349 4.224C27.0309 4.224 26.4369 4.54667 25.9529 5.192C25.4836 5.83733 25.2489 6.74667 25.2489 7.92C25.2489 9.07867 25.4762 9.97333 25.9309 10.604C26.3856 11.22 26.9796 11.528 27.7129 11.528C28.4609 11.528 29.0622 11.2127 29.5169 10.582C29.9862 9.95133 30.2209 9.04933 30.2209 7.876C30.2209 6.70267 29.9789 5.80067 29.4949 5.17C29.0256 4.53933 28.4389 4.224 27.7349 4.224Z" fill="white"/>
<path d="M16.0399 31.62C14.7345 31.62 14.0819 31.4733 14.0819 31.18L13.6199 22.358L10.9359 31.29C10.8772 31.466 10.3785 31.554 9.43985 31.554C8.50118 31.554 8.01718 31.4733 7.98785 31.312L5.21585 22.27L4.90785 31.048C4.89318 31.268 4.61452 31.422 4.07185 31.51C3.52918 31.5833 3.07452 31.62 2.70785 31.62C2.35585 31.62 2.01118 31.598 1.67385 31.554C0.969851 31.4513 0.625184 31.268 0.63985 31.004L1.14585 16.704C1.14585 16.352 2.04052 16.176 3.82985 16.176C4.35785 16.176 5.00318 16.22 5.76585 16.308C6.52852 16.3813 6.95385 16.5353 7.04185 16.77L9.50585 23.7L11.6618 16.748C11.7938 16.3667 12.8059 16.176 14.6979 16.176C15.2405 16.176 15.8858 16.22 16.6339 16.308C17.3965 16.3813 17.7779 16.5207 17.7779 16.726L18.4159 31.158C18.4159 31.3193 18.1299 31.4367 17.5579 31.51C16.9859 31.5833 16.4799 31.62 16.0399 31.62Z" fill="white"/>
<path d="M30.9388 31.642C29.6628 31.642 28.9735 31.4367 28.8708 31.026L28.1448 28.188H24.6468L24.0088 30.916C23.9208 31.3707 23.2168 31.598 21.8968 31.598C21.1928 31.598 20.6722 31.5613 20.3348 31.488C19.9975 31.4 19.8288 31.334 19.8288 31.29L23.7228 16.396C23.7228 16.2787 24.7275 16.22 26.7368 16.22C28.7462 16.22 29.7508 16.2787 29.7508 16.396L33.5568 31.312C33.5568 31.4147 33.2195 31.4953 32.5448 31.554C31.8702 31.6127 31.3348 31.642 30.9388 31.642ZM25.1968 25.394H27.5068L26.5168 20.84H26.3848L25.1968 25.394Z" fill="white"/>
<path d="M47.0709 31.114C47.0709 31.422 46.3815 31.576 45.0029 31.576C43.6242 31.576 42.8762 31.466 42.7589 31.246L39.0849 24.382V31.224C39.0849 31.488 38.4029 31.62 37.0389 31.62C35.6895 31.62 35.0149 31.488 35.0149 31.224V16.506C35.0149 16.286 35.5942 16.176 36.7529 16.176C37.2075 16.176 37.7355 16.22 38.3369 16.308C38.9529 16.3813 39.3269 16.528 39.4589 16.748L42.9789 23.524V16.616C42.9789 16.3373 43.6609 16.198 45.0249 16.198C46.3889 16.198 47.0709 16.3373 47.0709 16.616V31.114Z" fill="white"/>
<path d="M4.39768 38.1434C4.35507 37.7836 4.18225 37.5042 3.87922 37.3054C3.57619 37.1065 3.2045 37.0071 2.76416 37.0071C2.44219 37.0071 2.16047 37.0592 1.91899 37.1633C1.67988 37.2675 1.49285 37.4107 1.35791 37.593C1.22533 37.7753 1.15905 37.9825 1.15905 38.2145C1.15905 38.4086 1.20521 38.5755 1.29754 38.7152C1.39224 38.8525 1.51298 38.9673 1.65976 39.0596C1.80654 39.1496 1.96042 39.2242 2.1214 39.2834C2.28239 39.3402 2.43035 39.3863 2.5653 39.4219L3.30393 39.6207C3.49333 39.6704 3.70403 39.7391 3.93604 39.8267C4.17041 39.9143 4.39413 40.0338 4.6072 40.1853C4.82264 40.3345 5.00019 40.5263 5.13987 40.7606C5.27955 40.995 5.34939 41.2826 5.34939 41.6236C5.34939 42.0166 5.2464 42.3717 5.04044 42.6889C4.83684 43.0061 4.53854 43.2583 4.14555 43.4453C3.75493 43.6323 3.28026 43.7258 2.72155 43.7258C2.20071 43.7258 1.74972 43.6418 1.36856 43.4737C0.989776 43.3056 0.69148 43.0712 0.473677 42.7706C0.258242 42.4699 0.136319 42.1207 0.10791 41.723H1.017C1.04068 41.9976 1.133 42.2249 1.29399 42.4048C1.45734 42.5824 1.66331 42.7149 1.91189 42.8025C2.16283 42.8878 2.43272 42.9304 2.72155 42.9304C3.05772 42.9304 3.35957 42.8759 3.62709 42.767C3.89461 42.6558 4.10649 42.5019 4.26274 42.3054C4.41899 42.1065 4.49711 41.8745 4.49711 41.6094C4.49711 41.3679 4.42964 41.1714 4.2947 41.0199C4.15976 40.8683 3.9822 40.7452 3.76203 40.6505C3.54186 40.5558 3.30393 40.473 3.04825 40.402L2.15336 40.1463C1.58518 39.9829 1.13537 39.7497 0.803933 39.4467C0.472493 39.1437 0.306774 38.7471 0.306774 38.2571C0.306774 37.8499 0.416859 37.4948 0.637029 37.1917C0.859567 36.8863 1.15786 36.6496 1.53192 36.4815C1.90834 36.3111 2.32855 36.2258 2.79257 36.2258C3.26132 36.2258 3.67799 36.3099 4.04257 36.478C4.40715 36.6437 4.69598 36.871 4.90905 37.1598C5.12448 37.4486 5.23812 37.7765 5.24996 38.1434H4.39768Z" fill="white"/>
<path d="M11.2974 43.598V36.3253H13.7547C14.3253 36.3253 14.7917 36.4282 15.1539 36.6342C15.5185 36.8378 15.7884 37.1136 15.9636 37.4616C16.1387 37.8096 16.2263 38.1979 16.2263 38.6264C16.2263 39.0549 16.1387 39.4443 15.9636 39.7947C15.7907 40.1451 15.5232 40.4245 15.161 40.6328C14.7988 40.8388 14.3348 40.9417 13.769 40.9417H12.0076V40.1605H13.7405C14.1312 40.1605 14.4449 40.093 14.6816 39.9581C14.9183 39.8231 15.09 39.6408 15.1965 39.4112C15.3054 39.1792 15.3599 38.9176 15.3599 38.6264C15.3599 38.3352 15.3054 38.0748 15.1965 37.8451C15.09 37.6155 14.9172 37.4356 14.678 37.3054C14.4389 37.1728 14.1217 37.1065 13.7263 37.1065H12.178V43.598H11.2974Z" fill="white"/>
<path d="M21.7011 43.598H20.7778L23.4483 36.3253H24.3574L27.0278 43.598H26.1045L23.9312 37.4758H23.8744L21.7011 43.598ZM22.042 40.7571H25.7636V41.5383H22.042V40.7571Z" fill="white"/>
<path d="M38.1711 38.598H37.2904C37.2384 38.3447 37.1472 38.1221 37.017 37.9304C36.8892 37.7386 36.7329 37.5776 36.5483 37.4474C36.366 37.3148 36.1635 37.2154 35.941 37.1491C35.7185 37.0828 35.4865 37.0497 35.245 37.0497C34.8046 37.0497 34.4057 37.161 34.0483 37.3835C33.6931 37.606 33.4102 37.9339 33.1995 38.3672C32.9912 38.8004 32.887 39.3319 32.887 39.9616C32.887 40.5914 32.9912 41.1228 33.1995 41.5561C33.4102 41.9893 33.6931 42.3172 34.0483 42.5398C34.4057 42.7623 34.8046 42.8736 35.245 42.8736C35.4865 42.8736 35.7185 42.8404 35.941 42.7741C36.1635 42.7078 36.366 42.6096 36.5483 42.4794C36.7329 42.3468 36.8892 42.1846 37.017 41.9929C37.1472 41.7987 37.2384 41.5762 37.2904 41.3253H38.1711C38.1048 41.6969 37.9841 42.0296 37.8089 42.3231C37.6337 42.6167 37.4159 42.8665 37.1555 43.0724C36.8951 43.276 36.6027 43.4311 36.2784 43.5376C35.9564 43.6442 35.6119 43.6974 35.245 43.6974C34.6247 43.6974 34.0731 43.5459 33.5902 43.2429C33.1072 42.9398 32.7272 42.509 32.4502 41.9503C32.1733 41.3916 32.0348 40.7287 32.0348 39.9616C32.0348 39.1946 32.1733 38.5317 32.4502 37.973C32.7272 37.4143 33.1072 36.9834 33.5902 36.6804C34.0731 36.3773 34.6247 36.2258 35.245 36.2258C35.6119 36.2258 35.9564 36.2791 36.2784 36.3856C36.6027 36.4922 36.8951 36.6484 37.1555 36.8544C37.4159 37.058 37.6337 37.3066 37.8089 37.6001C37.9841 37.8913 38.1048 38.2239 38.1711 38.598Z" fill="white"/>
<path d="M44.0942 43.598V36.3253H48.4834V37.1065H44.9749V39.5639H48.2562V40.3451H44.9749V42.8167H48.5403V43.598H44.0942Z" fill="white"/>
</svg>
