<svg width="38" height="38" viewBox="0 0 38 38" fill="none" xmlns="http://www.w3.org/2000/svg">
<path d="M19 15.923C19.7071 15.923 20.4073 15.7838 21.0606 15.5132C21.7139 15.2426 22.3075 14.8459 22.8075 14.3459C23.3075 13.8459 23.7041 13.2523 23.9747 12.599C24.2453 11.9457 24.3846 11.2455 24.3846 10.5384C24.3846 9.83131 24.2453 9.13111 23.9747 8.47782C23.7041 7.82453 23.3075 7.23093 22.8075 6.73093C22.3075 6.23092 21.7139 5.83429 21.0606 5.56369C20.4073 5.29309 19.7071 5.15381 19 5.15381C17.5719 5.15381 16.2023 5.72111 15.1925 6.73093C14.1827 7.74074 13.6153 9.11033 13.6153 10.5384C13.6153 11.9665 14.1827 13.3361 15.1925 14.3459C16.2023 15.3557 17.5719 15.923 19 15.923ZM5.15381 31.923V32.8461H32.8461V31.923C32.8461 28.4769 32.8461 26.7538 32.1753 25.4369C31.5854 24.279 30.644 23.3376 29.4861 22.7477C28.1692 22.0769 26.4461 22.0769 23 22.0769H15C11.5538 22.0769 9.83073 22.0769 8.51381 22.7477C7.35594 23.3376 6.41456 24.279 5.82458 25.4369C5.15381 26.7538 5.15381 28.4769 5.15381 31.923Z" fill="white" stroke="white" stroke-width="4" stroke-linecap="round" stroke-linejoin="round"/>
</svg>
